<svg xmlns="http://www.w3.org/2000/svg" width="432" height="432" viewBox="0 0 432 432" version="1.1"><path d="M 213.372 16.019 C 207.801 16.411, 202.785 17.015, 202.224 17.362 C 201.663 17.708, 197.671 18.481, 193.352 19.078 C 180.407 20.870, 160.894 26.958, 149 32.917 C 129.925 42.473, 117.162 52.131, 98.670 71 C 81.543 88.477, 75.690 96.296, 65.735 115 C 60.437 124.954, 52.891 145.393, 51.454 153.683 C 51.090 155.782, 50.140 159.498, 49.344 161.940 C 47.730 166.886, 46.319 191.152, 47.396 195.443 L 48.087 198.196 65.294 197.805 C 77.874 197.519, 84.113 196.939, 88.500 195.646 C 91.800 194.673, 97.425 193.025, 101 191.983 C 104.575 190.942, 109.196 189.582, 111.270 188.961 C 119.647 186.452, 150.542 169.979, 156.663 164.757 C 160.053 161.866, 166.128 156.708, 170.163 153.297 C 177.745 146.886, 194.353 128.867, 197.009 124.169 C 197.839 122.701, 199.914 119.475, 201.622 117 C 203.329 114.525, 205.073 111.375, 205.498 110 C 206.374 107.163, 207.716 106.037, 210.250 106.015 C 212.533 105.995, 212.487 108.468, 210.079 115.161 C 209.023 118.097, 206.926 124.550, 205.419 129.500 C 196.869 157.581, 175.804 197.075, 156.916 220.436 C 153.387 224.801, 148.807 230.554, 146.738 233.222 C 141.797 239.592, 128.945 253, 127.780 253 C 127.278 253, 125.434 251.926, 123.683 250.613 C 115.705 244.629, 102.705 240.367, 90 239.569 C 80.214 238.955, 64.656 240.245, 62.640 241.838 C 62.013 242.334, 59.807 243.044, 57.737 243.417 C 50.614 244.701, 44.595 248.771, 33.367 259.894 C 21.824 271.330, 17.996 276.862, 13.921 288 C 11.729 293.991, 11.549 295.911, 11.630 312.508 C 11.725 331.957, 12.236 334.941, 18.232 351 C 19.977 355.675, 22.202 360.850, 23.177 362.500 C 24.151 364.150, 25.812 367.075, 26.867 369 C 27.923 370.925, 31.518 375.762, 34.857 379.748 C 38.196 383.734, 41.452 388.009, 42.093 389.248 C 43.595 392.151, 50.808 399, 52.363 399 C 53.020 399, 55.120 400.472, 57.029 402.272 C 62.347 407.284, 67.077 410.558, 74.095 414.081 C 77.618 415.850, 82.525 418.341, 85 419.617 C 87.475 420.893, 90.980 421.952, 92.790 421.969 C 94.599 421.986, 97.920 422.939, 100.170 424.087 C 103.969 426.025, 105.872 426.170, 126.880 426.130 C 144.444 426.097, 150.729 425.733, 155 424.502 C 158.025 423.630, 162.300 422.460, 164.500 421.901 C 175.625 419.074, 198.801 405.442, 209.589 395.381 C 216.205 389.210, 227.490 374.123, 231.157 366.547 C 233.273 362.173, 235.422 358.178, 235.932 357.668 C 236.500 357.100, 240.652 358.687, 246.679 361.777 C 258.275 367.723, 275.747 374, 280.702 374 C 282.632 374, 286.751 374.630, 289.856 375.401 C 299.994 377.917, 307.200 378.204, 315.137 376.406 C 319.187 375.489, 325.425 374.443, 329 374.082 C 332.575 373.721, 336.940 372.655, 338.700 371.713 C 340.461 370.771, 342.936 370.001, 344.200 370.002 C 345.465 370.003, 352.557 366.981, 359.961 363.286 C 372.282 357.136, 374.307 355.717, 383.872 346.534 C 389.619 341.015, 396.975 333.176, 400.218 329.113 C 407.111 320.476, 414.466 305.668, 418.982 291.337 L 422.183 281.174 421.723 261.337 C 421.301 243.132, 421.047 240.886, 418.633 234.038 C 417.186 229.934, 414.372 224.121, 412.379 221.119 C 402.763 206.637, 385.022 193.989, 368 189.480 C 360.992 187.624, 344.836 187.581, 338.432 189.402 C 335.719 190.173, 331.728 191.109, 329.562 191.482 C 325.394 192.201, 314.581 197.251, 313.514 198.978 C 313.166 199.540, 312.009 200, 310.941 200 C 309.268 200, 309 199.281, 309 194.794 C 309 191.930, 308.341 185.293, 307.535 180.044 C 306.729 174.795, 305.591 166.900, 305.006 162.500 C 302.858 146.350, 298.828 130.766, 291.056 108.560 C 288.499 101.254, 277.259 78.293, 272.914 71.500 C 271.155 68.750, 268.148 64.025, 266.231 61 C 263.082 56.029, 255.306 45.248, 253.970 44 C 253.675 43.725, 251.800 41.250, 249.803 38.500 C 245.668 32.805, 228.794 16, 227.211 16 C 226.635 16, 225.564 15.844, 224.832 15.653 C 224.099 15.463, 218.942 15.627, 213.372 16.019 M 209.226 23.571 C 207.426 24.371, 201.801 25.294, 196.726 25.623 C 186.683 26.274, 168.243 31.750, 153.557 38.443 C 141.349 44.006, 119.857 59.242, 107.712 70.942 C 93.828 84.317, 79.197 103.715, 71.573 118.855 C 65.443 131.027, 57 155.089, 57 160.386 C 57 162.102, 56.173 166.430, 55.162 170.003 C 53.394 176.256, 52.951 189.284, 54.456 190.789 C 55.699 192.032, 68.528 192.184, 74 191.020 C 77.025 190.377, 82.200 189.388, 85.500 188.823 C 88.800 188.257, 93.525 187.140, 96 186.340 C 98.475 185.541, 102.083 184.483, 104.017 183.990 C 112.539 181.820, 142.187 166.866, 147.500 162.059 C 148.600 161.064, 150.551 159.707, 151.835 159.044 C 155.408 157.199, 158.539 154.461, 170.738 142.510 C 182.833 130.659, 190.174 121.277, 199.692 105.500 C 207.785 92.087, 210.220 87.051, 213.478 77 C 214.994 72.325, 217.081 65.911, 218.117 62.746 C 219.153 59.581, 220 55.152, 220 52.903 C 220 50.654, 220.923 44.284, 222.051 38.747 C 223.180 33.211, 223.967 27.290, 223.801 25.590 C 223.507 22.575, 223.367 22.495, 218 22.309 C 214.935 22.202, 211.051 22.761, 209.226 23.571 M 230.470 31.049 C 230.113 31.626, 229.674 38.039, 229.494 45.299 C 229.264 54.578, 228.548 60.858, 227.083 66.438 C 225.938 70.804, 225 77.014, 225 80.238 C 225 83.462, 224.379 87.314, 223.620 88.800 C 222.861 90.285, 221.948 93.954, 221.590 96.952 C 220.445 106.545, 215.794 122.759, 208.525 142.500 C 207.107 146.350, 205.237 151.525, 204.368 154 C 202.126 160.387, 191.936 180.888, 185.728 191.500 C 177.344 205.831, 173.462 211.499, 157.816 232.251 C 155.240 235.668, 153.550 238.722, 154.062 239.038 C 154.573 239.354, 162.860 239.689, 172.477 239.782 L 189.962 239.951 193.458 232.385 C 201.290 215.432, 214.724 201.241, 229.270 194.555 C 240.182 189.538, 247.953 187.704, 258 187.774 C 269.639 187.856, 278.477 189.865, 289.979 195.044 C 294.811 197.220, 299.281 199, 299.913 199 C 301.499 199, 300.288 168.031, 298.465 162 C 297.717 159.525, 296.819 155.250, 296.470 152.500 C 296.120 149.750, 294.971 144.911, 293.917 141.746 C 292.863 138.581, 292 135.370, 292 134.610 C 292 130.236, 283.819 109.340, 275.510 92.495 C 266.404 74.032, 258.896 61.516, 251.458 52.401 C 249.619 50.147, 246.460 46.097, 244.438 43.401 C 240.193 37.740, 232.923 30, 231.851 30 C 231.448 30, 230.826 30.472, 230.470 31.049 M 251.901 194.432 C 251.663 194.670, 247.943 195.809, 243.634 196.964 C 239.325 198.119, 233.837 200.062, 231.439 201.282 C 225.546 204.279, 214.445 214.130, 208.428 221.700 C 203.035 228.486, 197.043 240.879, 197.017 245.303 C 197.008 246.844, 196.283 251.258, 195.407 255.111 C 193.945 261.536, 193.947 262.672, 195.427 268.808 C 196.315 272.489, 197.442 278.781, 197.932 282.791 C 198.422 286.801, 199.273 290.626, 199.822 291.291 C 200.371 291.956, 201.152 294.271, 201.557 296.436 C 202.760 302.872, 208.479 313.255, 217.138 324.723 C 226.783 337.497, 231.265 342.375, 236 345.255 C 237.925 346.425, 241.338 348.866, 243.586 350.677 C 253.394 358.586, 272.385 365.893, 289.199 368.229 C 305.070 370.434, 326.350 368.824, 339.926 364.393 C 347.572 361.897, 360.854 355.099, 366.944 350.564 C 368.839 349.154, 370.815 348, 371.336 348 C 373.053 348, 383.181 338.726, 388.753 332.052 C 400.199 318.342, 408.687 302.817, 411.569 290.319 C 412.434 286.569, 413.849 281.323, 414.714 278.663 C 417.042 271.503, 415.982 247.983, 412.926 239 C 406.687 220.657, 389.904 203.989, 372.250 198.602 C 369.363 197.721, 364.778 196.325, 362.062 195.500 C 348.779 191.465, 332.993 195.249, 314.069 207.005 C 310.532 209.202, 306.562 211, 305.248 211 C 303.934 211, 300.753 209.274, 298.179 207.165 C 291.936 202.047, 284.409 198.695, 273.396 196.125 C 265.290 194.233, 253.063 193.270, 251.901 194.432 M 348.995 224.506 C 347.729 226.032, 347.832 226.445, 349.893 228.115 C 351.375 229.314, 353.799 230, 356.561 230 C 366.632 230, 377.627 239.937, 380.153 251.322 C 382.117 260.176, 385.920 264.211, 388.907 260.612 C 389.791 259.547, 389.564 257.625, 387.933 252.362 C 384.395 240.949, 383.043 238.480, 377.154 232.668 C 370.478 226.080, 366.888 224.406, 357.444 223.475 C 351.476 222.887, 350.210 223.041, 348.995 224.506 M 61.500 249.343 C 56.550 251.089, 50.925 253.494, 49 254.688 C 43.789 257.920, 27.578 274.890, 25.178 279.625 C 18.263 293.268, 17.012 299.975, 18.045 317.876 C 18.738 329.882, 19.271 332.747, 22.535 342 C 27.421 355.853, 33.794 368.304, 39.231 374.621 C 41.656 377.437, 45.317 382.026, 47.366 384.818 C 49.416 387.610, 52.759 390.923, 54.796 392.180 C 56.833 393.437, 60.075 395.859, 62 397.561 C 65.997 401.097, 80.947 410.239, 86.664 412.644 C 88.774 413.531, 94.550 415.385, 99.500 416.764 C 107.772 419.067, 110.280 419.280, 130.500 419.385 C 149.267 419.483, 152.867 419.261, 155 417.872 C 156.375 416.976, 159.049 415.958, 160.942 415.608 C 165.781 414.715, 189.816 402.514, 194.014 398.820 C 195.931 397.132, 200.136 393.447, 203.358 390.632 C 206.580 387.816, 211.362 382.810, 213.986 379.506 C 218.700 373.570, 230 354.491, 230 352.468 C 230 351.893, 227.412 348.460, 224.250 344.838 C 214.174 333.300, 204.685 320.300, 200.979 312.958 C 197.965 306.988, 192.615 291.702, 191.543 286 C 191.181 284.075, 190.174 279.575, 189.305 276 C 188.388 272.227, 187.678 264.675, 187.613 258 L 187.500 246.500 172.171 246.224 L 156.841 245.947 147.923 250.485 C 143.019 252.981, 137.498 256.668, 135.656 258.678 C 131.141 263.605, 127.311 263.645, 122.213 258.818 C 119.755 256.491, 114.605 253.730, 106.978 250.651 L 95.456 246 82.978 246.084 C 71.637 246.160, 69.680 246.457, 61.500 249.343 M 76.408 273.425 C 74.707 274.165, 71.549 275.069, 69.391 275.434 C 66.299 275.956, 63.819 277.688, 57.688 283.604 C 49.359 291.641, 49.061 292.140, 46.496 302.368 C 44.567 310.062, 44.947 312, 48.386 312 C 50.934 312, 50.763 312.322, 55.633 298.369 C 57.254 293.723, 65.295 283.789, 68.797 282.105 C 70.060 281.497, 72.414 281, 74.027 281 C 80.741 281, 87.525 276.277, 85.506 273.009 C 84.640 271.608, 80.104 271.815, 76.408 273.425" stroke="none" fill="#ee0b2b" fill-rule="evenodd"/></svg>