<?xml version="1.0" standalone="no"?>
<!DOCTYPE svg PUBLIC "-//W3C//DTD SVG 20010904//EN"
 "http://www.w3.org/TR/2001/REC-SVG-20010904/DTD/svg10.dtd">
<svg version="1.0" xmlns="http://www.w3.org/2000/svg"
 width="2334.000000pt" height="435.000000pt" viewBox="0 0 2334.000000 435.000000"
 preserveAspectRatio="xMidYMid meet">

<g transform="translate(0.000000,435.000000) scale(0.100000,-0.100000)"
fill="#000000" stroke="none">
<path d="M2135 4223 c-16 -1 -68 -10 -115 -18 -47 -8 -110 -18 -140 -24 -167
-28 -382 -111 -542 -209 -249 -153 -509 -415 -636 -644 -83 -149 -116 -220
-152 -333 -64 -197 -80 -282 -87 -448 l-6 -149 179 4 c174 4 184 6 334 47 163
45 366 135 502 223 168 109 418 355 518 511 76 120 89 137 100 137 18 0 10
-49 -26 -173 -48 -164 -70 -218 -184 -452 -133 -272 -297 -513 -484 -715 -29
-30 -63 -70 -77 -89 -16 -20 -37 -35 -53 -36 -14 -2 -24 0 -21 5 7 11 -115 72
-200 101 -62 21 -87 24 -230 24 -147 -1 -166 -3 -237 -27 -107 -37 -168 -79
-274 -190 -73 -76 -100 -112 -132 -179 -61 -128 -67 -154 -66 -339 0 -137 4
-179 22 -245 45 -168 131 -340 216 -435 28 -31 67 -79 86 -105 19 -27 50 -56
69 -66 19 -10 55 -39 80 -63 52 -51 279 -171 345 -182 23 -3 59 -13 81 -21 30
-11 92 -14 255 -14 196 0 224 3 315 26 299 75 596 307 731 570 26 50 48 92 50
93 1 2 38 -14 81 -37 164 -85 292 -124 509 -156 108 -16 114 -16 212 4 56 12
113 21 129 21 43 0 205 55 286 96 122 62 198 117 301 220 147 148 234 288 303
495 27 82 28 89 27 304 0 209 -1 223 -25 285 -59 155 -187 294 -346 377 -129
67 -204 85 -330 80 -125 -4 -229 -28 -319 -72 -40 -19 -76 -35 -82 -35 -15 0
-18 15 -37 170 -36 296 -72 467 -141 664 -45 128 -136 329 -159 352 -7 7 -18
27 -25 46 -18 45 -173 279 -209 314 -16 16 -41 49 -56 73 -15 24 -67 83 -115
132 l-88 89 -54 -1 c-29 -1 -66 -4 -83 -6z m88 -128 c-4 -118 -64 -392 -119
-543 -25 -70 -114 -233 -180 -332 -53 -79 -195 -236 -289 -320 -38 -34 -77
-70 -85 -79 -38 -43 -307 -200 -406 -237 -229 -86 -463 -134 -573 -119 l-44 7
6 101 c13 213 87 459 198 659 187 335 452 588 797 762 108 54 331 126 393 126
30 1 95 9 144 20 50 10 106 18 125 17 l35 -2 -2 -60z m138 -62 c52 -54 176
-217 234 -308 227 -355 348 -696 389 -1095 17 -164 22 -237 15 -244 -3 -3 -48
15 -102 40 -102 47 -143 58 -267 74 -275 36 -570 -150 -706 -445 l-34 -73
-182 5 c-101 3 -184 6 -185 7 0 0 30 42 68 91 186 243 300 431 412 680 45 100
151 412 182 535 52 208 88 427 108 648 6 72 14 132 17 132 3 0 26 -21 51 -47z
m409 -1626 c95 -30 155 -61 203 -103 55 -50 57 -50 237 49 36 20 101 48 145
62 70 23 90 26 159 20 268 -21 476 -161 583 -393 86 -186 63 -498 -56 -737
-62 -125 -123 -207 -235 -312 -171 -163 -389 -273 -568 -287 -43 -4 -97 -14
-120 -22 -43 -16 -92 -14 -183 6 -22 5 -74 14 -116 20 -146 21 -308 92 -411
181 -31 27 -61 49 -66 49 -37 0 -226 235 -285 355 -44 89 -63 145 -83 253 -7
41 -19 92 -25 115 -17 63 -13 151 11 252 32 135 78 213 190 326 98 98 156 135
265 166 28 8 64 19 80 23 48 15 193 2 275 -23z m-1839 -497 c82 -12 170 -49
268 -112 40 -26 79 -48 86 -48 7 0 35 18 62 40 28 22 90 60 138 85 l88 45 136
0 c75 0 141 -4 148 -8 8 -5 12 -39 11 -107 -2 -94 22 -252 51 -340 78 -237
145 -350 322 -543 27 -29 49 -59 49 -67 0 -26 -115 -216 -170 -283 -85 -102
-215 -201 -365 -277 -71 -36 -146 -68 -165 -72 -19 -3 -42 -12 -52 -20 -13
-12 -59 -14 -265 -11 -151 2 -258 8 -273 15 -14 6 -46 16 -73 22 -56 13 -127
45 -182 81 -22 15 -58 39 -80 53 -40 27 -90 64 -153 113 -18 14 -43 42 -56 62
-13 20 -44 62 -71 92 -46 54 -157 265 -170 325 -4 17 -14 50 -23 75 -14 36
-17 82 -17 225 l0 180 50 100 c40 79 67 118 133 186 158 165 336 223 573 189z"/>
<path d="M3465 2140 c-14 -23 30 -51 105 -66 122 -26 196 -95 226 -214 22 -86
31 -102 57 -98 31 4 33 42 7 125 -50 164 -148 246 -308 259 -58 5 -81 3 -87
-6z"/>
<path d="M750 1644 c-25 -8 -63 -18 -86 -24 -54 -13 -164 -125 -186 -190 -32
-92 -40 -146 -26 -169 16 -26 37 -27 44 -3 3 9 12 33 19 52 8 19 19 55 25 79
17 65 106 151 180 173 133 40 154 54 129 84 -14 17 -40 16 -99 -2z"/>
<path d="M5187 4224 c-9 -9 -9 -3216 0 -3731 l6 -383 49 0 48 0 -2 2058 -3
2057 -45 3 c-25 2 -49 0 -53 -4z"/>
<path d="M7255 3983 c-89 -12 -246 -59 -315 -94 -136 -69 -272 -230 -321 -379
-4 -14 -15 -43 -23 -65 -8 -22 -15 -64 -16 -93 0 -29 -7 -84 -15 -121 -11 -47
-13 -75 -6 -93 5 -14 12 -63 16 -109 7 -93 31 -176 82 -288 27 -61 50 -91 121
-161 104 -102 199 -156 344 -194 113 -30 290 -36 355 -12 21 8 65 19 98 26 33
7 72 19 88 26 24 13 27 20 27 63 0 27 -9 71 -20 97 l-20 47 -57 -7 c-32 -4
-82 -14 -112 -23 -114 -33 -334 10 -418 82 -104 88 -172 285 -172 495 0 97 3
121 35 245 23 91 101 217 157 252 61 38 181 73 272 79 66 5 94 1 163 -19 45
-13 84 -21 87 -18 2 4 13 34 24 66 23 69 30 131 16 143 -12 11 -119 40 -190
52 -51 9 -147 10 -200 3z"/>
<path d="M19100 3981 c-300 -73 -447 -191 -550 -441 -39 -95 -44 -116 -52
-225 -11 -157 -11 -144 -3 -265 4 -60 16 -126 26 -155 11 -27 19 -55 19 -62 0
-7 17 -47 37 -90 29 -60 57 -99 126 -170 101 -104 185 -155 294 -178 38 -8 84
-19 103 -25 42 -12 159 -12 215 -1 78 17 170 43 195 56 14 8 52 26 85 41 67
31 196 152 221 207 8 18 19 39 24 47 6 8 15 26 20 40 6 14 17 36 25 50 9 16
12 38 8 63 -4 30 -1 45 16 68 21 28 22 37 19 232 -3 174 -7 214 -27 287 -69
252 -233 419 -491 500 -72 22 -252 35 -310 21z m262 -255 c162 -78 258 -291
258 -572 0 -110 -3 -139 -20 -175 -11 -24 -20 -55 -20 -68 0 -12 -17 -60 -38
-105 -45 -95 -84 -133 -186 -182 -61 -30 -80 -34 -148 -34 -66 0 -88 5 -142
30 -109 52 -170 131 -227 297 -27 77 -29 94 -29 230 0 194 10 254 57 355 50
106 123 186 206 228 58 30 67 31 147 27 66 -3 97 -10 142 -31z"/>
<path d="M20780 3981 c-104 -26 -191 -56 -240 -83 -125 -69 -247 -204 -294
-323 -15 -38 -35 -86 -43 -105 -13 -28 -31 -179 -35 -295 -3 -83 18 -230 43
-308 48 -145 76 -194 173 -295 72 -74 105 -100 168 -132 43 -22 96 -42 116
-45 20 -3 62 -13 93 -21 132 -34 317 -4 489 80 125 61 254 196 286 299 3 12
13 29 20 38 8 9 17 46 21 83 3 36 12 71 19 77 11 9 14 54 14 204 0 176 -2 202
-26 292 -14 54 -45 134 -67 178 -107 206 -346 351 -597 360 -58 2 -121 0 -140
-4z m266 -259 c118 -60 191 -168 233 -348 26 -114 30 -346 7 -380 -8 -12 -18
-45 -22 -75 -8 -67 -70 -185 -121 -229 -20 -18 -68 -48 -107 -66 -61 -30 -80
-34 -148 -34 -173 0 -299 110 -369 323 -39 119 -36 414 6 535 45 128 128 232
228 282 58 30 67 32 147 27 69 -3 96 -10 146 -35z"/>
<path d="M7966 3941 c-3 -5 -5 -354 -4 -775 l2 -766 163 0 163 0 2 328 3 327
330 0 330 0 3 -327 2 -328 165 0 165 0 2 680 c2 374 3 721 3 771 l0 91 -167 5
-168 4 0 -329 0 -329 -307 -6 c-170 -3 -321 -3 -337 0 l-28 6 3 326 4 326
-162 3 c-96 2 -164 -1 -167 -7z"/>
<path d="M9665 3927 c-3 -12 -4 -362 -3 -777 l3 -755 75 0 c41 1 265 2 498 3
l423 2 -3 113 -3 112 -337 3 -338 2 0 208 c0 148 3 211 12 220 9 9 88 12 292
12 155 0 287 4 294 8 9 6 12 36 10 113 l-3 104 -302 3 -303 2 0 210 c0 116 3
210 8 210 4 0 154 1 335 1 380 2 340 -14 335 134 l-3 90 -492 2 -493 2 -5 -22z"/>
<path d="M10948 3944 c-5 -4 -8 -353 -8 -776 l0 -768 168 0 167 0 0 290 c0
248 2 292 15 300 8 5 75 10 148 10 l133 0 71 -147 c39 -82 103 -217 144 -300
l73 -153 170 0 170 0 -96 198 c-52 108 -121 250 -154 315 -32 65 -59 124 -59
131 0 8 29 42 65 76 75 73 145 198 145 260 0 21 7 43 15 50 20 17 19 74 -4
151 -11 35 -22 76 -25 91 -7 29 -94 129 -158 179 -22 18 -72 45 -111 62 l-72
31 -395 4 c-217 2 -398 0 -402 -4z m655 -230 c72 -9 118 -34 148 -83 27 -42
29 -51 29 -152 0 -118 -15 -170 -63 -221 l-26 -28 -211 0 -210 0 0 244 c0 186
3 246 13 250 13 5 258 -2 320 -10z"/>
<path d="M12507 3944 c-4 -4 -7 -353 -7 -776 l0 -768 158 0 157 0 -3 294 -3
293 23 7 c32 8 261 7 274 -2 13 -8 79 -136 134 -261 20 -47 60 -133 88 -191
27 -58 53 -113 56 -122 5 -16 23 -18 182 -18 96 0 174 3 172 8 -2 4 -48 97
-103 207 -55 110 -120 243 -144 295 -25 52 -54 108 -65 124 -18 24 -19 30 -6
34 8 2 47 37 86 76 127 128 169 248 145 419 -13 95 -46 163 -114 235 -56 58
-93 81 -202 120 -70 26 -72 26 -445 30 -207 2 -379 0 -383 -4z m680 -230 c57
-9 125 -107 144 -210 9 -49 7 -64 -15 -132 -15 -42 -35 -92 -46 -109 l-20 -33
-220 0 -220 0 0 244 c0 186 3 245 13 249 15 5 319 -2 364 -9z"/>
<path d="M13910 3938 c0 -7 66 -146 146 -308 80 -162 159 -324 176 -360 17
-36 58 -121 92 -190 l61 -125 3 -277 3 -278 169 0 169 0 3 283 3 282 38 63
c20 35 37 66 37 68 0 2 43 91 96 196 52 106 109 225 126 263 17 39 66 142 109
229 44 87 79 160 79 162 0 2 -69 4 -154 4 l-155 0 -19 -27 c-25 -38 -74 -135
-121 -240 -86 -195 -201 -425 -211 -421 -11 3 -178 346 -235 483 -19 44 -45
107 -59 140 l-25 60 -165 3 c-130 2 -166 0 -166 -10z"/>
<path d="M15486 3941 c-4 -6 -6 -355 -4 -776 l3 -765 421 0 c408 0 421 1 439
20 11 13 31 20 52 20 47 0 163 69 208 124 71 87 85 128 86 252 1 103 -1 115
-26 160 -34 62 -130 161 -164 169 -45 11 -91 37 -91 50 0 8 23 35 51 62 28 26
64 75 81 108 28 56 30 68 32 180 1 109 -1 124 -23 165 -53 101 -121 157 -251
211 -53 22 -69 23 -431 27 -260 2 -379 0 -383 -7z m604 -231 c61 -12 110 -45
147 -101 22 -34 26 -50 26 -112 -1 -58 -6 -84 -29 -132 l-29 -60 -195 0 -195
0 -3 195 c-1 107 0 200 2 207 7 16 197 18 276 3z m143 -650 c57 -27 114 -75
134 -113 10 -21 16 -56 15 -105 l0 -74 -48 -49 c-27 -27 -53 -49 -59 -49 -6 0
-27 -9 -48 -20 -33 -18 -56 -20 -227 -20 l-190 0 0 218 c0 120 3 222 7 225 3
4 89 7 190 7 163 0 188 -2 226 -20z"/>
<path d="M17027 3944 c-4 -4 -7 -353 -7 -776 l0 -768 160 0 160 0 0 294 c0
226 3 295 13 299 6 2 77 4 156 3 l145 -1 6 -25 c4 -14 59 -131 121 -260 63
-129 122 -252 132 -272 l17 -38 165 0 c93 0 165 4 165 9 0 5 -42 96 -94 203
-129 266 -206 431 -206 444 0 6 19 24 41 40 38 26 89 95 148 198 13 23 26 70
31 110 5 39 11 80 13 90 6 31 -22 137 -53 202 -36 74 -105 141 -188 183 -132
67 -112 64 -532 68 -212 3 -389 1 -393 -3z m691 -236 c41 -12 94 -57 123 -104
17 -29 21 -49 20 -122 -1 -98 -25 -180 -67 -225 l-25 -27 -212 2 -212 3 -3
235 c-1 129 0 240 3 248 3 10 40 11 172 6 93 -3 183 -10 201 -16z"/>
<path d="M21926 3941 c-4 -5 -6 -354 -5 -776 l1 -765 165 2 164 3 -1 316 c0
282 1 317 16 323 20 8 158 8 178 0 9 -3 39 -43 66 -88 28 -44 74 -119 104
-166 29 -47 94 -154 146 -237 l93 -153 179 0 c141 0 178 3 171 13 -4 6 -24 37
-44 67 -20 30 -54 84 -76 120 -22 36 -86 141 -144 233 -212 342 -224 366 -199
382 5 3 55 97 111 208 56 111 105 207 109 212 4 6 38 69 75 140 36 72 73 137
81 146 8 8 14 19 14 22 0 4 -74 7 -164 7 -119 0 -166 -3 -173 -12 -11 -15
-112 -207 -233 -443 -45 -88 -91 -170 -103 -183 -19 -21 -28 -22 -112 -20
l-90 3 0 325 -1 325 -161 3 c-95 1 -164 -1 -167 -7z"/>
<path d="M13746 1962 c-3 -5 -49 -12 -103 -15 -156 -9 -267 -62 -391 -190 -58
-60 -82 -95 -122 -179 -27 -56 -54 -125 -59 -153 -12 -62 -31 -177 -38 -229
-6 -45 22 -250 43 -316 8 -25 21 -66 28 -92 19 -69 92 -185 161 -254 61 -61
202 -144 249 -144 11 -1 32 -7 46 -15 19 -11 67 -14 200 -14 153 -1 180 2 219
19 24 11 50 20 59 20 8 0 44 14 79 30 110 52 268 222 298 321 4 13 13 31 21
39 7 9 15 44 17 79 3 46 9 68 21 76 15 11 17 33 14 201 -4 215 -21 300 -87
434 -78 159 -153 231 -341 326 -67 34 -86 39 -175 44 -55 4 -107 10 -116 14
-10 4 -20 3 -23 -2z m80 -231 c16 -5 46 -12 68 -16 31 -5 54 -22 115 -83 67
-67 80 -86 103 -152 29 -82 68 -294 68 -371 0 -30 -8 -64 -20 -86 -12 -24 -20
-57 -20 -88 0 -110 -111 -273 -220 -323 -48 -22 -69 -25 -165 -25 -99 0 -115
2 -161 26 -85 43 -130 106 -201 277 -16 39 -18 74 -18 281 0 212 2 239 18 256
9 11 17 25 17 32 0 6 13 38 30 71 54 107 159 185 262 195 28 3 54 7 56 10 8 8
36 6 68 -4z"/>
<path d="M6550 1161 l0 -789 65 -7 c36 -4 104 -5 152 -2 49 4 97 6 108 7 20 0
20 6 17 540 -1 297 1 540 6 540 4 0 19 -18 32 -40 14 -22 49 -77 78 -123 30
-45 88 -138 129 -207 42 -69 108 -172 147 -230 38 -58 102 -157 140 -220 39
-63 94 -150 121 -193 l50 -79 159 6 c87 4 162 9 167 12 5 3 8 348 6 787 l-2
782 -167 2 -168 2 0 -542 -1 -542 -30 35 c-33 37 -171 247 -257 390 -70 116
-398 632 -412 648 -8 9 -56 12 -175 12 l-165 0 0 -789z"/>
<path d="M8304 1936 c-2 -6 -3 -362 -2 -791 l3 -780 490 4 c270 2 491 4 491 5
1 0 3 48 5 106 l4 105 -334 5 -335 5 -8 32 c-5 18 -7 117 -6 220 l3 188 296 3
296 2 5 108 c3 59 3 110 1 115 -2 4 -136 7 -297 7 l-294 0 -7 36 c-11 59 -4
398 9 406 6 4 158 8 338 8 l327 0 3 111 c2 61 0 113 -5 116 -17 10 -979 -1
-983 -11z"/>
<path d="M9466 1889 c-3 -34 -6 -86 -6 -115 l0 -54 220 0 220 0 0 -667 c0
-368 4 -673 8 -680 4 -7 32 -10 77 -8 39 1 109 3 158 4 l87 1 0 623 c0 342 3
646 6 675 l7 52 222 0 c122 0 224 2 226 4 2 2 3 54 1 115 l-3 111 -608 0 -608
0 -7 -61z"/>
<path d="M10830 1911 c0 -22 5 -52 11 -68 6 -15 17 -62 24 -103 8 -41 23 -115
34 -165 11 -49 27 -126 36 -170 9 -44 22 -107 30 -140 8 -33 23 -105 35 -160
11 -55 29 -136 40 -180 24 -102 57 -259 66 -310 4 -22 13 -54 21 -72 7 -18 13
-59 13 -92 0 -93 -2 -91 109 -90 53 1 136 4 186 8 l90 6 10 46 c5 25 16 53 22
61 7 8 16 44 19 79 4 35 13 71 20 79 7 9 16 36 20 60 4 25 12 52 19 60 7 8 16
42 20 75 4 33 13 70 21 82 8 12 14 29 14 37 0 9 7 37 16 63 10 26 23 75 30
108 20 94 50 193 64 210 7 9 14 35 14 58 1 34 5 42 21 42 13 0 21 -10 28 -35
5 -19 13 -40 17 -45 5 -6 15 -40 23 -75 12 -57 51 -199 118 -430 28 -97 57
-199 69 -250 6 -25 18 -65 27 -90 8 -25 17 -58 19 -75 12 -77 -8 -70 196 -67
101 2 186 7 190 11 5 4 11 40 14 81 4 41 12 82 19 90 7 8 16 47 19 85 4 39 13
84 21 100 7 17 16 62 20 100 4 39 13 77 20 85 7 8 16 51 19 94 4 44 11 86 18
93 6 8 17 48 24 91 25 152 51 272 61 284 6 7 14 49 18 93 4 44 11 85 15 90 5
6 13 39 20 75 6 36 20 96 30 133 13 51 15 70 6 73 -6 2 -86 3 -176 2 l-165 -3
-5 -101 c-3 -62 -10 -107 -18 -117 -8 -9 -17 -59 -21 -121 -4 -58 -13 -111
-20 -120 -7 -8 -16 -61 -20 -118 -4 -57 -13 -113 -19 -125 -7 -12 -15 -61 -18
-110 -4 -48 -13 -103 -20 -121 -8 -19 -17 -69 -20 -112 -4 -43 -11 -84 -16
-92 -15 -23 -55 35 -68 99 -6 32 -20 79 -31 105 -10 26 -19 61 -19 78 0 18 -6
44 -14 58 -14 27 -34 100 -60 217 -12 56 -25 102 -61 215 -7 25 -17 63 -21 85
-3 22 -11 49 -17 59 -5 11 -15 45 -22 75 -7 31 -21 77 -30 104 l-17 47 -130 0
-129 0 -20 -45 c-11 -25 -24 -69 -30 -98 -5 -28 -20 -90 -33 -137 -14 -47 -38
-134 -55 -195 -16 -60 -39 -139 -50 -175 -11 -36 -30 -103 -42 -150 -12 -47
-27 -99 -34 -116 -7 -17 -17 -53 -21 -80 -7 -52 -50 -154 -64 -154 -15 0 -20
15 -26 86 -3 38 -12 92 -20 119 -7 28 -18 91 -23 140 -5 50 -14 102 -19 116
-6 15 -13 60 -17 100 -4 41 -13 97 -20 124 -8 28 -17 86 -21 130 -3 44 -13 96
-21 115 -8 19 -16 75 -18 125 l-5 90 -170 3 -170 2 0 -39z"/>
<path d="M14792 1164 l3 -788 40 -7 c22 -4 96 -4 165 0 l125 6 0 290 c0 160 1
296 3 303 1 9 39 12 147 12 l144 0 42 -87 c131 -281 158 -337 204 -428 l50
-100 100 -3 c55 -1 131 1 168 5 l69 8 -161 323 c-89 178 -161 332 -161 342 0
10 21 34 49 54 54 40 85 77 124 151 60 112 79 192 67 272 -16 100 -62 189
-138 266 -78 79 -135 112 -220 126 -34 5 -71 15 -84 22 -17 10 -116 14 -381
17 l-357 4 2 -788z m633 545 c93 -17 177 -83 196 -153 16 -59 2 -210 -26 -272
-40 -91 -48 -94 -270 -94 -164 0 -194 2 -199 15 -6 16 3 480 10 503 4 16 205
17 289 1z"/>
<path d="M16347 1944 c-12 -12 -8 -1572 4 -1579 5 -4 76 -4 157 0 l147 7 0
332 0 331 96 3 c96 3 97 2 119 -25 39 -51 185 -284 343 -551 l61 -102 161 0
c88 0 166 4 174 9 16 10 12 17 -68 141 -31 47 -96 153 -146 234 -49 81 -118
191 -151 246 -103 164 -110 179 -96 198 13 19 51 92 152 287 37 72 106 205
154 298 47 92 86 169 86 172 0 3 -69 5 -153 5 -107 0 -158 -4 -169 -12 -15
-12 -86 -146 -269 -506 -37 -74 -73 -140 -80 -148 -8 -10 -38 -14 -116 -14
l-104 0 2 338 1 337 -149 3 c-82 1 -152 -1 -156 -4z"/>
<path d="M18135 1941 c-72 -19 -172 -74 -222 -123 -40 -40 -62 -74 -94 -147
-41 -92 -42 -97 -36 -173 5 -66 14 -94 47 -161 50 -99 54 -104 144 -165 74
-50 140 -83 241 -122 33 -12 107 -45 165 -74 l105 -51 33 -65 c43 -85 38 -117
-26 -183 -58 -58 -155 -92 -237 -82 -60 7 -221 39 -306 61 l-61 16 -29 -28
c-17 -16 -31 -42 -34 -63 -3 -20 -16 -55 -28 -78 -13 -27 -18 -46 -12 -51 9
-8 77 -29 235 -72 26 -7 137 -14 266 -17 l221 -5 89 44 c65 31 106 60 155 108
101 100 104 108 103 285 0 178 -1 180 -107 283 -74 71 -94 83 -292 173 -11 5
-57 22 -102 38 -105 38 -155 72 -194 130 -29 43 -30 51 -27 124 3 74 5 80 36
108 18 16 40 29 50 29 9 0 31 9 47 20 19 12 47 20 75 20 48 0 200 -30 315 -62
39 -11 78 -22 88 -25 9 -2 19 2 21 9 2 7 13 42 24 78 12 36 22 81 24 100 3 31
0 36 -37 54 -37 18 -137 47 -230 66 -50 10 -370 11 -410 1z"/>
</g>
</svg>
