<?xml version="1.0" standalone="no"?>
<!DOCTYPE svg PUBLIC "-//W3C//DTD SVG 20010904//EN"
 "http://www.w3.org/TR/2001/REC-SVG-20010904/DTD/svg10.dtd">
<svg version="1.0" xmlns="http://www.w3.org/2000/svg"
 width="225.000000pt" height="225.000000pt" viewBox="0 0 225.000000 225.000000"
 preserveAspectRatio="xMidYMid meet">
<metadata>
Created by potrace 1.10, written by Peter Selinger 2001-2011
</metadata>
<g transform="translate(0.000000,225.000000) scale(0.050000,-0.050000)"
fill="#000000" stroke="none">
<path d="M2560 3936 c-622 -337 -1013 -913 -1120 -1649 l-23 -159 -214 1
c-444 2 -623 -193 -623 -679 0 -464 192 -760 589 -908 304 -114 818 -47 1014
131 31 28 41 26 102 -20 465 -355 1302 -127 1562 427 117 247 97 527 -58 853
-200 418 -548 514 -957 264 -116 -71 -105 -81 -201 193 -113 325 -159 970 -75
1054 19 19 24 8 24 -45 2 -283 344 -518 831 -570 128 -14 134 -12 120 23 -9
21 -23 182 -31 358 -10 217 -26 350 -49 413 -123 340 -559 493 -891 313z
m-153 -436 c-118 -402 -64 -958 133 -1365 22 -46 40 -85 40 -87 0 -3 -49 -19
-109 -37 l-109 -31 -93 59 c-123 77 -276 107 -495 97 l-179 -9 12 118 c54 514
340 1040 741 1359 121 96 119 100 59 -104z m-1218 -1611 c49 -50 37 -100 -39
-158 -108 -82 -137 -155 -122 -303 25 -247 -162 -283 -199 -40 -41 274 221
639 360 501z"/>
</g>
</svg>
